<svg xmlns="http://www.w3.org/2000/svg" width="4.727" height="7.5" viewBox="0 0 4.727 7.5">
  <g id="next" transform="translate(-82.222)">
    <path id="Path_12262" data-name="Path 12262" d="M86.771,3.317,83.633.183a.6.6,0,0,0-.867,0L82.4.544a.59.59,0,0,0-.178.433.616.616,0,0,0,.178.438L84.74,3.75,82.4,6.09a.59.59,0,0,0-.178.433.616.616,0,0,0,.178.438l.366.361a.616.616,0,0,0,.867,0l3.139-3.134a.616.616,0,0,0,.178-.438A.59.59,0,0,0,86.771,3.317Z" transform="translate(0 0)" fill="#707070"/>
  </g>
</svg>
